<?xml version="1.0" standalone="no"?>
<!DOCTYPE svg PUBLIC "-//W3C//DTD SVG 20010904//EN"
 "http://www.w3.org/TR/2001/REC-SVG-20010904/DTD/svg10.dtd">
<svg version="1.0" xmlns="http://www.w3.org/2000/svg"
 width="700.000000pt" height="700.000000pt" viewBox="0 0 700.000000 700.000000"
 preserveAspectRatio="xMidYMid meet">
<metadata>
Created by potrace 1.14, written by Peter Selinger 2001-2017
</metadata>
<g transform="translate(0.000000,700.000000) scale(0.100000,-0.100000)"
fill="#000000" stroke="none">
<path d="M0 3500 l0 -3500 3500 0 3500 0 0 3500 0 3500 -3500 0 -3500 0 0
-3500z m3765 1300 c498 -46 772 -203 869 -499 32 -97 46 -184 46 -293 0 -267
-112 -469 -320 -577 l-83 -43 51 -18 c326 -115 514 -451 473 -848 -45 -432
-294 -658 -826 -748 -87 -15 -205 -18 -892 -21 l-793 -4 0 1530 0 1531 683 0
c379 0 731 -4 792 -10z"/>
<path d="M3080 3949 l0 -320 288 3 c334 4 352 8 439 94 60 60 83 121 83 225 0
149 -72 254 -203 297 -63 20 -86 22 -337 22 l-270 0 0 -321z"/>
<path d="M3080 2691 l0 -401 279 0 c153 0 300 4 327 9 138 26 251 103 293 200
48 113 49 270 1 378 -25 57 -89 124 -145 152 -99 49 -132 54 -452 58 l-303 5
0 -401z"/>
</g>
</svg>
